<svg xmlns="http://www.w3.org/2000/svg" viewBox="0 0 16 16" width="512" height="512" shape-rendering="crispEdges"><rect x="1" y="1" width="4" height="1" fill="oklch(0.22 0.008 85)"/><rect x="11" y="1" width="4" height="1" fill="oklch(0.22 0.008 85)"/><rect x="1" y="2" width="5" height="1" fill="oklch(0.22 0.008 85)"/><rect x="10" y="2" width="5" height="1" fill="oklch(0.22 0.008 85)"/><rect x="1" y="3" width="2" height="1" fill="oklch(0.22 0.008 85)"/><rect x="4" y="3" width="3" height="1" fill="oklch(0.22 0.008 85)"/><rect x="9" y="3" width="3" height="1" fill="oklch(0.22 0.008 85)"/><rect x="1" y="4" width="2" height="1" fill="oklch(0.22 0.008 85)"/><rect x="5" y="4" width="2" height="1" fill="oklch(0.22 0.008 85)"/><rect x="9" y="4" width="2" height="1" fill="oklch(0.22 0.008 85)"/><rect x="1" y="5" width="2" height="1" fill="oklch(0.22 0.008 85)"/><rect x="5" y="5" width="2" height="1" fill="oklch(0.22 0.008 85)"/><rect x="9" y="5" width="2" height="1" fill="oklch(0.22 0.008 85)"/><rect x="1" y="6" width="2" height="1" fill="oklch(0.22 0.008 85)"/><rect x="5" y="6" width="2" height="1" fill="oklch(0.22 0.008 85)"/><rect x="9" y="6" width="2" height="1" fill="oklch(0.22 0.008 85)"/><rect x="1" y="7" width="2" height="1" fill="oklch(0.22 0.008 85)"/><rect x="5" y="7" width="2" height="1" fill="oklch(0.22 0.008 85)"/><rect x="9" y="7" width="2" height="1" fill="oklch(0.22 0.008 85)"/><rect x="1" y="8" width="2" height="1" fill="oklch(0.22 0.008 85)"/><rect x="4" y="8" width="3" height="1" fill="oklch(0.22 0.008 85)"/><rect x="9" y="8" width="3" height="1" fill="oklch(0.22 0.008 85)"/><rect x="1" y="9" width="5" height="1" fill="oklch(0.22 0.008 85)"/><rect x="10" y="9" width="5" height="1" fill="oklch(0.22 0.008 85)"/><rect x="1" y="10" width="4" height="1" fill="oklch(0.22 0.008 85)"/><rect x="11" y="10" width="4" height="1" fill="oklch(0.22 0.008 85)"/><rect x="9" y="13" width="6" height="1" fill="oklch(0.22 0.008 85)"/><rect x="9" y="14" width="6" height="1" fill="oklch(0.22 0.008 85)"/></svg>