<svg xmlns="http://www.w3.org/2000/svg" viewBox="0 0 48 48" width="512" height="512"><circle cx="24" cy="24" r="24" fill="oklch(0.76 0.15 58)"/><g transform="translate(1.25 2)" fill="none" stroke-width="4.5" stroke-linecap="round"><path d="M24 26A7 7 0 1 1 24 25.999" stroke="oklch(0.22 0.014 65)"/><path d="M24 33V11" stroke="oklch(0.22 0.014 65)"/><path d="M35.5 20.638A7 7 0 1 0 35.5 31.362" stroke="oklch(0.22 0.014 65)"/></g><g fill="none" stroke="oklch(0.76 0.128 58)" stroke-width="0.12" opacity="0.9"><path d="M4 0V48M0 4H48M8 0V48M0 8H48M12 0V48M0 12H48M16 0V48M0 16H48M20 0V48M0 20H48M24 0V48M0 24H48M28 0V48M0 28H48M32 0V48M0 32H48M36 0V48M0 36H48M40 0V48M0 40H48M44 0V48M0 44H48" opacity="0.45"/><rect x="4" y="4" width="40" height="40"/><circle cx="24" cy="24" r="20"/><path d="M24 0V48M0 24H48"/></g></svg>