<svg xmlns="http://www.w3.org/2000/svg" viewBox="-2 -2 52 52" width="1040" height="1040"><rect x="-2" y="-2" width="52" height="52" fill="#0f1219"/><path d="M10.5 9H24A15 15 0 0 1 24 39H10.5Q8.5 39 8.5 37V11Q8.5 9 10.5 9ZM29.394 18.215A9 9 0 1 0 29.394 29.785L25.564 26.571A4 4 0 1 1 25.564 21.429Z" fill="#f46622" fill-rule="evenodd"/><g fill="none" stroke="#7e8085" stroke-width="0.08"><path d="M4 0V48M0 4H48M8 0V48M0 8H48M12 0V48M0 12H48M16 0V48M0 16H48M20 0V48M0 20H48M24 0V48M0 24H48M28 0V48M0 28H48M32 0V48M0 32H48M36 0V48M0 36H48M40 0V48M0 40H48M44 0V48M0 44H48" opacity="0.5"/><rect x="0" y="0" width="48" height="48" rx="11"/><rect x="4" y="4" width="40" height="40"/><circle cx="24" cy="24" r="20"/><path d="M24 0V48M0 24H48"/><circle cx="24" cy="24" r="15" stroke="#f46622" stroke-dasharray="0.6 0.6"/><circle cx="22.5" cy="24" r="6.5" stroke="#ebeef5" stroke-dasharray="0.4 0.4"/><path d="M22.5 24L31.694 16.288M22.5 24L31.694 31.712" stroke="#ebeef5"/></g><g fill="#ebeef5" font-family="monospace" font-size="1.4"><text x="0.5" y="-0.5">48-unit grid · tile r 11 · D bowl r 15 · C r 6.5 ± 2.5 (16 px cut ± 2.8) · opening ±40°</text></g></svg>
